<mxfile host="Electron" modified="2024-02-28T10:28:28.307Z" agent="Mozilla/5.0 (Windows NT 10.0; Win64; x64) AppleWebKit/537.36 (KHTML, like Gecko) draw.io/22.1.16 Chrome/120.0.6099.109 Electron/28.1.0 Safari/537.36" etag="s_SmoDFjgssrIBGkWulN" version="22.1.16" type="device">
  <diagram name="第 1 页" id="iF8MFXbjkBzksL31KR3i">
    <mxGraphModel dx="4410" dy="621" grid="1" gridSize="10" guides="1" tooltips="1" connect="1" arrows="1" fold="1" page="1" pageScale="1" pageWidth="3300" pageHeight="4681" math="0" shadow="0">
      <root>
        <mxCell id="0" />
        <mxCell id="1" parent="0" />
        <mxCell id="R5xB0aFQ8kDhO29mvLJs-1" value="&lt;b&gt;&lt;font style=&quot;font-size: 17px;&quot;&gt;W&lt;/font&gt;&lt;/b&gt;" style="rounded=1;whiteSpace=wrap;html=1;fillColor=#d5e8d4;strokeColor=#82b366;" parent="1" vertex="1">
          <mxGeometry x="-260" y="120" width="90" height="80" as="geometry" />
        </mxCell>
        <mxCell id="R5xB0aFQ8kDhO29mvLJs-2" value="" style="endArrow=none;dashed=1;html=1;dashPattern=1 3;strokeWidth=2;rounded=0;" parent="1" edge="1">
          <mxGeometry width="50" height="50" relative="1" as="geometry">
            <mxPoint x="-160" y="210" as="sourcePoint" />
            <mxPoint x="-160" y="110" as="targetPoint" />
          </mxGeometry>
        </mxCell>
        <mxCell id="R5xB0aFQ8kDhO29mvLJs-3" value="&lt;b&gt;&lt;font style=&quot;font-size: 17px;&quot;&gt;U&lt;/font&gt;&lt;/b&gt;" style="rounded=1;whiteSpace=wrap;html=1;fillColor=#d5e8d4;strokeColor=#82b366;" parent="1" vertex="1">
          <mxGeometry x="-150" y="120" width="40" height="80" as="geometry" />
        </mxCell>
        <mxCell id="R5xB0aFQ8kDhO29mvLJs-4" value="&lt;b&gt;&lt;font style=&quot;font-size: 17px;&quot;&gt;S&lt;/font&gt;&lt;/b&gt;" style="rounded=1;whiteSpace=wrap;html=1;fillColor=#d5e8d4;strokeColor=#82b366;" parent="1" vertex="1">
          <mxGeometry x="-100" y="130" width="40" height="40" as="geometry" />
        </mxCell>
        <mxCell id="R5xB0aFQ8kDhO29mvLJs-5" value="&lt;b&gt;&lt;font style=&quot;font-size: 17px;&quot;&gt;V&lt;/font&gt;&lt;/b&gt;" style="rounded=1;whiteSpace=wrap;html=1;fillColor=#d5e8d4;strokeColor=#82b366;direction=south;" parent="1" vertex="1">
          <mxGeometry x="-52" y="130" width="80" height="40" as="geometry" />
        </mxCell>
        <mxCell id="R5xB0aFQ8kDhO29mvLJs-6" value="" style="endArrow=none;dashed=1;html=1;dashPattern=1 3;strokeWidth=2;rounded=0;" parent="1" edge="1">
          <mxGeometry width="50" height="50" relative="1" as="geometry">
            <mxPoint x="40" y="210" as="sourcePoint" />
            <mxPoint x="40" y="110" as="targetPoint" />
          </mxGeometry>
        </mxCell>
        <mxCell id="R5xB0aFQ8kDhO29mvLJs-7" value="&lt;b&gt;&lt;font style=&quot;font-size: 17px;&quot;&gt;U&lt;/font&gt;&lt;/b&gt;" style="rounded=1;whiteSpace=wrap;html=1;fillColor=#d5e8d4;strokeColor=#82b366;" parent="1" vertex="1">
          <mxGeometry x="50" y="120" width="40" height="80" as="geometry" />
        </mxCell>
        <mxCell id="R5xB0aFQ8kDhO29mvLJs-8" value="&lt;b style=&quot;border-color: var(--border-color);&quot;&gt;&lt;font style=&quot;border-color: var(--border-color); font-size: 17px;&quot;&gt;S&lt;/font&gt;&lt;/b&gt;" style="rounded=1;whiteSpace=wrap;html=1;fillColor=#fff2cc;strokeColor=#d6b656;" parent="1" vertex="1">
          <mxGeometry x="100" y="130" width="40" height="40" as="geometry" />
        </mxCell>
        <mxCell id="R5xB0aFQ8kDhO29mvLJs-9" value="&lt;b style=&quot;border-color: var(--border-color);&quot;&gt;&lt;font style=&quot;border-color: var(--border-color); font-size: 17px;&quot;&gt;V&lt;/font&gt;&lt;/b&gt;" style="rounded=1;whiteSpace=wrap;html=1;fillColor=#d5e8d4;strokeColor=#82b366;direction=south;" parent="1" vertex="1">
          <mxGeometry x="148" y="130" width="80" height="40" as="geometry" />
        </mxCell>
        <mxCell id="R5xB0aFQ8kDhO29mvLJs-10" value="&lt;b&gt;（1）常规的&lt;/b&gt;" style="text;html=1;strokeColor=none;fillColor=none;align=center;verticalAlign=middle;whiteSpace=wrap;rounded=0;" parent="1" vertex="1">
          <mxGeometry x="-250" y="220" width="80" height="20" as="geometry" />
        </mxCell>
        <mxCell id="R5xB0aFQ8kDhO29mvLJs-11" value="&lt;b&gt;(2) 低秩参数化&lt;/b&gt;" style="text;html=1;strokeColor=none;fillColor=none;align=center;verticalAlign=middle;whiteSpace=wrap;rounded=0;" parent="1" vertex="1">
          <mxGeometry x="-110" y="220" width="120" height="20" as="geometry" />
        </mxCell>
        <mxCell id="R5xB0aFQ8kDhO29mvLJs-12" value="&lt;b&gt;(3)增加特定参数&lt;br&gt;&lt;/b&gt;" style="text;html=1;strokeColor=none;fillColor=none;align=center;verticalAlign=middle;whiteSpace=wrap;rounded=0;" parent="1" vertex="1">
          <mxGeometry x="60" y="220" width="120" height="20" as="geometry" />
        </mxCell>
        <mxCell id="R5xB0aFQ8kDhO29mvLJs-13" value="" style="html=1;shadow=0;dashed=0;align=center;verticalAlign=middle;shape=mxgraph.arrows2.arrow;dy=0.62;dx=11.33;notch=0;" parent="1" vertex="1">
          <mxGeometry x="-167" y="225" width="50" height="10" as="geometry" />
        </mxCell>
        <mxCell id="R5xB0aFQ8kDhO29mvLJs-14" value="" style="html=1;shadow=0;dashed=0;align=center;verticalAlign=middle;shape=mxgraph.arrows2.arrow;dy=0.62;dx=11.33;notch=0;" parent="1" vertex="1">
          <mxGeometry x="10" y="225" width="50" height="10" as="geometry" />
        </mxCell>
        <mxCell id="R5xB0aFQ8kDhO29mvLJs-15" value="N×M" style="text;html=1;strokeColor=none;fillColor=none;align=center;verticalAlign=middle;whiteSpace=wrap;rounded=0;fontStyle=2" parent="1" vertex="1">
          <mxGeometry x="-240" y="195" width="60" height="30" as="geometry" />
        </mxCell>
        <mxCell id="R5xB0aFQ8kDhO29mvLJs-16" value="N×K" style="text;html=1;strokeColor=none;fillColor=none;align=center;verticalAlign=middle;whiteSpace=wrap;rounded=0;fontStyle=2" parent="1" vertex="1">
          <mxGeometry x="-159" y="195" width="60" height="30" as="geometry" />
        </mxCell>
        <mxCell id="R5xB0aFQ8kDhO29mvLJs-17" value="K×K" style="text;html=1;strokeColor=none;fillColor=none;align=center;verticalAlign=middle;whiteSpace=wrap;rounded=0;fontStyle=2" parent="1" vertex="1">
          <mxGeometry x="-110" y="165" width="60" height="30" as="geometry" />
        </mxCell>
        <mxCell id="R5xB0aFQ8kDhO29mvLJs-18" value="K×M" style="text;html=1;strokeColor=none;fillColor=none;align=center;verticalAlign=middle;whiteSpace=wrap;rounded=0;fontStyle=2" parent="1" vertex="1">
          <mxGeometry x="-42" y="165" width="60" height="30" as="geometry" />
        </mxCell>
        <mxCell id="R5xB0aFQ8kDhO29mvLJs-19" value="N×K" style="text;html=1;strokeColor=none;fillColor=none;align=center;verticalAlign=middle;whiteSpace=wrap;rounded=0;fontStyle=2" parent="1" vertex="1">
          <mxGeometry x="40" y="195" width="60" height="30" as="geometry" />
        </mxCell>
        <mxCell id="R5xB0aFQ8kDhO29mvLJs-22" value="K×K" style="text;html=1;strokeColor=none;fillColor=none;align=center;verticalAlign=middle;whiteSpace=wrap;rounded=0;fontStyle=2" parent="1" vertex="1">
          <mxGeometry x="92" y="165" width="60" height="30" as="geometry" />
        </mxCell>
        <mxCell id="R5xB0aFQ8kDhO29mvLJs-23" value="K×M" style="text;html=1;strokeColor=none;fillColor=none;align=center;verticalAlign=middle;whiteSpace=wrap;rounded=0;fontStyle=2" parent="1" vertex="1">
          <mxGeometry x="158" y="165" width="60" height="30" as="geometry" />
        </mxCell>
        <mxCell id="sk32HBXBo18XLRUoy6OK-1" value="" style="rounded=1;whiteSpace=wrap;html=1;fillColor=#d5e8d4;strokeColor=#82b366;" parent="1" vertex="1">
          <mxGeometry x="-267" y="70" width="27" height="10" as="geometry" />
        </mxCell>
        <mxCell id="sk32HBXBo18XLRUoy6OK-2" value="共享参数" style="text;html=1;strokeColor=none;fillColor=none;align=center;verticalAlign=middle;whiteSpace=wrap;rounded=0;" parent="1" vertex="1">
          <mxGeometry x="-240" y="60" width="60" height="30" as="geometry" />
        </mxCell>
        <mxCell id="sk32HBXBo18XLRUoy6OK-3" value="" style="rounded=1;whiteSpace=wrap;html=1;fillColor=#fff2cc;strokeColor=#d6b656;" parent="1" vertex="1">
          <mxGeometry x="-267" y="90" width="27" height="10" as="geometry" />
        </mxCell>
        <mxCell id="sk32HBXBo18XLRUoy6OK-4" value="特定参数" style="text;html=1;strokeColor=none;fillColor=none;align=center;verticalAlign=middle;whiteSpace=wrap;rounded=0;" parent="1" vertex="1">
          <mxGeometry x="-240" y="80" width="60" height="30" as="geometry" />
        </mxCell>
      </root>
    </mxGraphModel>
  </diagram>
</mxfile>
